HIERARCHY
ROOT Root
{
	OFFSET 0.00000 0.00000 0.00000
	CHANNELS 6 Xposition Yposition Zposition Zrotation Xrotation Yrotation
	JOINT Hip
	{
		OFFSET 0 0 0	
		CHANNELS 3 Zrotation Xrotation Yrotation
		JOINT Tummy
		{
			OFFSET 0 0.04 0	
			CHANNELS 3 Zrotation Xrotation Yrotation
			JOINT ChestBottom
			{
				OFFSET 0 0.194 0	
				CHANNELS 3 Zrotation Xrotation Yrotation
				JOINT ChestTop
				{
					OFFSET 0 0.166 0	
					CHANNELS 3 Zrotation Xrotation Yrotation
					JOINT LeftCollar
					{
						OFFSET 0 0.1 0	
						CHANNELS 3 Zrotation Xrotation Yrotation
						JOINT LeftUpperArm
						{
							OFFSET 0.156 -0.02 0.03	
							CHANNELS 3 Zrotation Xrotation Yrotation
							JOINT LeftForeArm
							{
								OFFSET 0.035 -0.27 -0.01	
								CHANNELS 3 Zrotation Xrotation Yrotation
								JOINT LeftHand
								{
									OFFSET 0.01 -0.27 0.01	
									CHANNELS 3 Zrotation Xrotation Yrotation
									End Site
									{
										OFFSET 0 -0.15 0
									}
								}
							}
						}
					}
					JOINT RightCollar
					{
						OFFSET 0 0.1 0	
						CHANNELS 3 Zrotation Xrotation Yrotation
						JOINT RightUpperArm
						{
							OFFSET -0.156 -0.02 0.03	
							CHANNELS 3 Zrotation Xrotation Yrotation
							JOINT RightForeArm
							{
								OFFSET -0.035 -0.27 -0.01	
								CHANNELS 3 Zrotation Xrotation Yrotation
								JOINT RightHand
								{
									OFFSET -0.01 -0.27 0.01	
									CHANNELS 3 Zrotation Xrotation Yrotation
									End Site
									{
										OFFSET 0 -0.15 0
									}
								}
							}
						}
					}
					JOINT Neck
					{
						OFFSET 0 0.1 0	
						CHANNELS 3 Zrotation Xrotation Yrotation
						JOINT Head
						{
							OFFSET 0 0.127 0.03	
							CHANNELS 3 Zrotation Xrotation Yrotation
							End Site
							{
								OFFSET 0 0.127 0.03
							}
						}
					}
				}
			}
		}
	}
	JOINT LeftHip
	{
		OFFSET 0 0 0	
		CHANNELS 3 Zrotation Xrotation Yrotation
		JOINT LeftThigh
		{
			OFFSET 0.088 -0.06 0	
			CHANNELS 3 Zrotation Xrotation Yrotation
			JOINT LeftLowerLeg
			{
				OFFSET 0 -0.39 0.02	
				CHANNELS 3 Zrotation Xrotation Yrotation
				JOINT LeftFootTop
				{
					OFFSET 0 -0.43 -0.02	
					CHANNELS 3 Zrotation Xrotation Yrotation
					JOINT LeftFootFront
					{
						OFFSET 0 -0.07 0.085	
						CHANNELS 3 Zrotation Xrotation Yrotation
						End Site
						{
							OFFSET 0 -0.005 0.09
						}
					}
				}
				JOINT LeftHeel
				{
					OFFSET 0 -0.43 -0.02	
					CHANNELS 3 Zrotation Xrotation Yrotation
					End Site
					{
						OFFSET 0 -0.075 -0.05
					}
				}
			}
		}
	}
	JOINT RightHip
	{
		OFFSET 0 0 0	
		CHANNELS 3 Zrotation Xrotation Yrotation
		JOINT RightThigh
		{
			OFFSET -0.088 -0.06 0	
			CHANNELS 3 Zrotation Xrotation Yrotation
			JOINT RightLowerLeg
			{
				OFFSET 0 -0.39 0.02	
				CHANNELS 3 Zrotation Xrotation Yrotation
				JOINT RightFootTop
				{
					OFFSET 0 -0.43 -0.02	
					CHANNELS 3 Zrotation Xrotation Yrotation
					JOINT RightFootFront
					{
						OFFSET 0 -0.07 0.085	
						CHANNELS 3 Zrotation Xrotation Yrotation
						End Site
						{
							OFFSET 0 -0.005 0.09
						}
					}
				}
				JOINT RightHeel
				{
					OFFSET 0 -0.43 -0.02	
					CHANNELS 3 Zrotation Xrotation Yrotation
					End Site
					{
						OFFSET 0 -0.075 -0.05
					}
				}
			}
		}
	}
}
MOTION
Frames: 10
Frame Time: 0.025
0 0.95825 0 -0 0 -0 0.88584 -3.929 -84.98 -1.3091 0.65778 6.3829 -1.3091 0.65778 6.3829 -1.0948 0.5624 5.3606 -0 0 -0 -12.791 10.349 17.833 15.452 -10.659 48.61 -0 0 -0 -0 0 -0 -3.1394 -6.096 -25.219 10.488 -28.818 -64.152 -0 0 -0 0.52111 0.017136 15.222 0.52111 0.017136 15.222 0.88584 -3.929 -84.98 -12.674 -7.808 6.3586 3.2951 28.745 -6.2494 -0 0 -0 -0 0 -0 -0 0 -0 0.88584 -3.929 -84.98 0.55909 -27.307 3.5493 -3.5085 37.457 -0.39825 -0 0 -0 -0 0 -0 -0 0 -0 
0 0.95825 0 -0 0 -0 0.39754 -3.7368 -82.544 -1.094 1.037 6.4543 -1.094 1.037 6.4543 -0.9112 0.8795 5.4202 -0 0 -0 -13.664 11.55 20.585 17.023 -13.225 46.224 -0 0 -0 -0 0 -0 -2.4716 -5.0667 -29.022 6.5173 -24.215 -64.222 -0 0 -0 0.30083 -0.012195 14.354 0.30083 -0.012195 14.354 0.39754 -3.7368 -82.544 -12.196 -6.2385 7.3117 4.7181 29.472 -9.1872 -0 0 -0 -0 0 -0 -0 0 -0 0.39754 -3.7368 -82.544 0.99637 -28.207 4.1962 -4.9534 33.376 3.2572 -0 0 -0 -0 0 -0 -0 0 -0 
0 0.95825 0 -0 0 -0 0.22496 -3.5469 -79.92 -0.796 1.1629 6.5201 -0.796 1.1629 6.5201 -0.6598 0.98305 5.4757 -0 0 -0 -13.756 13.09 24.021 17.186 -16.545 44.057 -0 0 -0 -0 0 -0 -2.1787 -3.8342 -33.133 3.3948 -20.562 -63.955 -0 0 -0 0.080107 0.19378 13.451 0.080107 0.19378 13.451 0.22496 -3.5469 -79.92 -11.725 -5.1676 8.0156 6.2679 30.324 -12.022 -0 0 -0 -0 0 -0 -0 0 -0 0.22496 -3.5469 -79.92 1.433 -28.666 4.6967 -6.5708 28.668 7.3013 -0 0 -0 -0 0 -0 -0 0 -0 
0 0.95825 0 -0 0 -0 0.37077 -3.2723 -77.113 -0.53688 1.2178 6.5237 -0.53688 1.2178 6.5237 -0.4417 1.0272 5.479 -0 0 -0 -13.082 14.575 26.632 16.358 -20.199 43.8 -0 0 -0 -0 0 -0 -2.1137 -2.6995 -36.793 1.1076 -17.539 -63.174 -0 0 -0 -0.092132 0.26026 12.593 -0.092132 0.26026 12.593 0.37077 -3.2723 -77.113 -11.179 -4.7233 8.0152 7.6127 31.455 -14.211 -0 0 -0 -0 0 -0 -0 0 -0 0.37077 -3.2723 -77.113 1.676 -28.96 4.8963 -8.0787 23.624 11.315 -0 0 -0 -0 0 -0 -0 0 -0 
0 0.95825 0 -0 0 -0 0.78538 -3.027 -74.18 -0.4738 1.236 6.4828 -0.4738 1.236 6.4828 -0.38863 1.042 5.4448 -0 0 -0 -11.74 15.984 27.548 15.248 -23.851 46.005 -0 0 -0 -0 0 -0 -1.8321 -1.481 -39.222 -0.56364 -15.02 -62.342 -0 0 -0 -0.11098 0.1359 11.735 -0.11098 0.1359 11.735 0.78538 -3.027 -74.18 -10.679 -4.6743 7.3438 8.6209 32.728 -15.706 -0 0 -0 -0 0 -0 -0 0 -0 0.78538 -3.027 -74.18 1.3696 -29.218 4.8049 -9.1322 18.597 14.521 -0 0 -0 -0 0 -0 -0 0 -0 
0 0.95825 0 -0 0 -0 1.4124 -2.8997 -71.234 -0.64929 1.1313 6.409 -0.64929 1.1313 6.409 -0.53695 0.9553 5.3826 -0 0 -0 -10.024 17.309 26.942 14.542 -27.219 50.027 -0 0 -0 -0 0 -0 -0.96621 0.16822 -40.221 -1.7763 -13.089 -61.72 -0 0 -0 0.071887 0.0039268 10.875 0.071887 0.0039268 10.875 1.4124 -2.8997 -71.234 -10.28 -4.7965 6.4128 9.3522 33.936 -16.769 -0 0 -0 -0 0 -0 -0 0 -0 1.4124 -2.8997 -71.234 0.39652 -29.295 4.7698 -9.4883 13.847 16.132 -0 0 -0 -0 0 -0 -0 0 -0 
0 0.95825 0 -0 0 -0 2.1434 -2.7907 -68.272 -0.93974 0.8937 6.2474 -0.93974 0.8937 6.2474 -0.78291 0.75768 5.2468 -0 0 -0 -8.2822 18.421 25.627 14.325 -30.225 54.575 -0 0 -0 -0 0 -0 0.26072 2.1026 -40.252 -2.5923 -11.675 -60.997 -0 0 -0 0.3658 -0.025165 10.073 0.3658 -0.025165 10.073 2.1434 -2.7907 -68.272 -9.8229 -4.9397 5.6789 10.043 34.927 -17.901 -0 0 -0 -0 0 -0 -0 0 -0 2.1434 -2.7907 -68.272 -1.0471 -28.986 5.0032 -9.1495 9.6351 16.042 -0 0 -0 -0 0 -0 -0 0 -0 
0 0.95825 0 -0 0 -0 2.853 -2.511 -65.219 -1.1911 0.64684 5.9589 -1.1911 0.64684 5.9589 -0.99609 0.55173 5.0045 -0 0 -0 -6.673 19.02 24.282 14.165 -32.942 58.56 -0 0 -0 -0 0 -0 1.3157 3.6741 -39.936 -3.0369 -10.564 -60.022 -0 0 -0 0.63983 -0.060027 9.3282 0.63983 -0.060027 9.3282 2.853 -2.511 -65.219 -9.1086 -5.0807 5.2946 10.963 35.697 -19.56 -0 0 -0 -0 0 -0 -0 0 -0 2.853 -2.511 -65.219 -2.6877 -28.347 5.422 -8.4374 6.4141 14.827 -0 0 -0 -0 0 -0 -0 0 -0 
0 0.95825 0 -0 0 -0 3.4472 -1.9925 -62.146 -1.3449 0.43444 5.6142 -1.3449 0.43444 5.6142 -1.127 0.37382 4.7152 -0 0 -0 -5.1103 19.082 23.203 13.571 -35.413 61.473 -0 0 -0 -0 0 -0 1.9765 4.5704 -39.649 -3.208 -9.551 -58.806 -0 0 -0 0.85349 -0.14266 8.5717 0.85349 -0.14266 8.5717 3.4472 -1.9925 -62.146 -8.1051 -5.2857 5.1279 12.188 36.357 -21.709 -0 0 -0 -0 0 -0 -0 0 -0 3.4472 -1.9925 -62.146 -4.3247 -27.74 5.9889 -7.692 4.8304 13.361 -0 0 -0 -0 0 -0 -0 0 -0 
0 0.95825 0 -0 0 -0 3.7938 -1.3466 -59.222 -1.4118 0.24732 5.3179 -1.4118 0.24732 5.3179 -1.1844 0.21657 4.4667 -0 0 -0 -3.4735 18.777 22.547 12.189 -37.526 63.02 -0 0 -0 -0 0 -0 2.3023 4.9181 -39.416 -3.2331 -8.4997 -57.275 -0 0 -0 1.0213 -0.20645 7.7668 1.0213 -0.20645 7.7668 3.7938 -1.3466 -59.222 -6.9341 -5.4511 4.9895 13.642 36.979 -23.96 -0 0 -0 -0 0 -0 -0 0 -0 3.7938 -1.3466 -59.222 -5.7889 -27.485 6.778 -6.9421 5.3856 12.382 -0 0 -0 -0 0 -0 -0 0 -0 
